<?xml version="1.0" encoding="UTF-8"?>
<svg id="Capa_2" data-name="Capa 2" xmlns="http://www.w3.org/2000/svg" viewBox="0 0 27.85 27.85">
  <defs>
    <style>
      .cls-1 {
        fill: #bcc6c3;
      }

      .cls-2 {
        fill: #1a171b;
      }

      .cls-3 {
        stroke-width: 1.2px;
      }

      .cls-3, .cls-4 {
        fill: none;
        stroke: #1a171b;
      }

      .cls-4 {
        stroke-miterlimit: 10;
        stroke-width: .25px;
      }
    </style>
  </defs>
  <g id="Capa_1-2" data-name="Capa 1">
    <g>
      <path class="cls-1" d="m13.92,27.25c7.36,0,13.32-5.96,13.32-13.32S21.28.6,13.92.6.6,6.56.6,13.92s5.97,13.32,13.32,13.32"/>
      <circle class="cls-3" cx="13.92" cy="13.92" r="13.32"/>
      <path class="cls-2" d="m23.69,8.75l-8.49,11.75h-1.31v-3.01h2.36c.1,0,.19-.08.19-.19v-3.2h2.36c.1,0,.19-.08.19-.19v-3.2h2.36c.1,0,.19-.08.19-.19v-3.2h2.17v1.4ZM4.16,17.49h9.36v3.01H4.16v-3.01ZM23.88,6.97h-12.28c-.1,0-.19.08-.19.19v2.19c0,.1.08.19.19.19s.19-.08.19-.19v-2h9.37v3.01h-12.09c-.1,0-.19.08-.19.19v2.19c0,.1.08.19.19.19s.19-.08.19-.19v-2h9.36v3.01H6.51c-.1,0-.19.08-.19.19v2.19c0,.1.08.19.19.19s.19-.08.19-.19v-2h9.36v3.01H3.97c-.1,0-.19.08-.19.19v3.38c0,.1.08.19.19.19h11.33c.06,0,.12-.03.15-.08l8.58-11.88s.04-.07.04-.11v-1.65c0-.1-.08-.19-.19-.19"/>
      <path class="cls-4" d="m23.69,8.75l-8.49,11.75h-1.31v-3.01h2.36c.1,0,.19-.08.19-.19v-3.2h2.36c.1,0,.19-.08.19-.19v-3.2h2.36c.1,0,.19-.08.19-.19v-3.2h2.17v1.4ZM4.16,17.49h9.36v3.01H4.16v-3.01ZM23.88,6.97h-12.28c-.1,0-.19.08-.19.19v2.19c0,.1.08.19.19.19s.19-.08.19-.19v-2h9.37v3.01h-12.09c-.1,0-.19.08-.19.19v2.19c0,.1.08.19.19.19s.19-.08.19-.19v-2h9.36v3.01H6.51c-.1,0-.19.08-.19.19v2.19c0,.1.08.19.19.19s.19-.08.19-.19v-2h9.36v3.01H3.97c-.1,0-.19.08-.19.19v3.38c0,.1.08.19.19.19h11.33c.06,0,.12-.03.15-.08l8.58-11.88s.04-.07.04-.11v-1.65c0-.1-.08-.19-.19-.19Z"/>
    </g>
  </g>
</svg>